<mxfile host="app.diagrams.net" modified="2024-01-29T17:40:50.035Z" agent="Mozilla/5.0 (Windows NT 10.0; Win64; x64) AppleWebKit/537.36 (KHTML, like Gecko) Chrome/120.0.0.0 YaBrowser/24.1.0.0 Safari/537.36" etag="SYtqUjuApbaLQ2zqqHSa" version="23.0.2" type="github">
  <diagram name="type hierarchy" id="U7cY_-AYdK3J_du2QsU1">
    <mxGraphModel dx="1195" dy="659" grid="1" gridSize="10" guides="1" tooltips="1" connect="1" arrows="1" fold="1" page="1" pageScale="1" pageWidth="827" pageHeight="1169" math="0" shadow="0">
      <root>
        <mxCell id="0" />
        <mxCell id="1" parent="0" />
        <mxCell id="bOU06l6v6A-IQKMl1Zy2-4" style="edgeStyle=orthogonalEdgeStyle;rounded=0;orthogonalLoop=1;jettySize=auto;html=1;entryX=0.5;entryY=0;entryDx=0;entryDy=0;curved=1;dashed=1;fillColor=#dae8fc;strokeColor=#6c8ebf;" edge="1" parent="1" source="bOU06l6v6A-IQKMl1Zy2-1" target="bOU06l6v6A-IQKMl1Zy2-2">
          <mxGeometry relative="1" as="geometry" />
        </mxCell>
        <mxCell id="bOU06l6v6A-IQKMl1Zy2-1" value="unknown" style="rounded=1;whiteSpace=wrap;html=1;fillColor=#dae8fc;strokeColor=#6c8ebf;" vertex="1" parent="1">
          <mxGeometry x="350" y="40" width="120" height="30" as="geometry" />
        </mxCell>
        <mxCell id="bOU06l6v6A-IQKMl1Zy2-5" style="edgeStyle=orthogonalEdgeStyle;shape=connector;curved=1;rounded=0;orthogonalLoop=1;jettySize=auto;html=1;entryX=0;entryY=0.5;entryDx=0;entryDy=0;dashed=1;labelBackgroundColor=default;strokeColor=#6c8ebf;align=center;verticalAlign=middle;fontFamily=Helvetica;fontSize=11;fontColor=default;endArrow=classic;fillColor=#dae8fc;" edge="1" parent="1" source="bOU06l6v6A-IQKMl1Zy2-2" target="bOU06l6v6A-IQKMl1Zy2-3">
          <mxGeometry relative="1" as="geometry" />
        </mxCell>
        <mxCell id="bOU06l6v6A-IQKMl1Zy2-7" style="edgeStyle=orthogonalEdgeStyle;shape=connector;curved=1;rounded=0;orthogonalLoop=1;jettySize=auto;html=1;entryX=1;entryY=0.5;entryDx=0;entryDy=0;dashed=1;labelBackgroundColor=default;strokeColor=#6c8ebf;align=center;verticalAlign=middle;fontFamily=Helvetica;fontSize=11;fontColor=default;endArrow=classic;fillColor=#dae8fc;" edge="1" parent="1" source="bOU06l6v6A-IQKMl1Zy2-2" target="bOU06l6v6A-IQKMl1Zy2-6">
          <mxGeometry relative="1" as="geometry" />
        </mxCell>
        <mxCell id="bOU06l6v6A-IQKMl1Zy2-16" style="edgeStyle=orthogonalEdgeStyle;shape=connector;curved=1;rounded=0;orthogonalLoop=1;jettySize=auto;html=1;entryX=0.5;entryY=0;entryDx=0;entryDy=0;dashed=1;labelBackgroundColor=default;strokeColor=#6c8ebf;align=center;verticalAlign=middle;fontFamily=Helvetica;fontSize=11;fontColor=default;endArrow=classic;fillColor=#dae8fc;" edge="1" parent="1" source="bOU06l6v6A-IQKMl1Zy2-2" target="bOU06l6v6A-IQKMl1Zy2-10">
          <mxGeometry relative="1" as="geometry" />
        </mxCell>
        <mxCell id="bOU06l6v6A-IQKMl1Zy2-17" style="edgeStyle=orthogonalEdgeStyle;shape=connector;curved=1;rounded=0;orthogonalLoop=1;jettySize=auto;html=1;entryX=0.5;entryY=0;entryDx=0;entryDy=0;dashed=1;labelBackgroundColor=default;strokeColor=#6c8ebf;align=center;verticalAlign=middle;fontFamily=Helvetica;fontSize=11;fontColor=default;endArrow=classic;fillColor=#dae8fc;exitX=0.5;exitY=1;exitDx=0;exitDy=0;" edge="1" parent="1" source="bOU06l6v6A-IQKMl1Zy2-2" target="bOU06l6v6A-IQKMl1Zy2-11">
          <mxGeometry relative="1" as="geometry" />
        </mxCell>
        <mxCell id="bOU06l6v6A-IQKMl1Zy2-18" style="edgeStyle=orthogonalEdgeStyle;shape=connector;curved=1;rounded=0;orthogonalLoop=1;jettySize=auto;html=1;entryX=0.5;entryY=0;entryDx=0;entryDy=0;dashed=1;labelBackgroundColor=default;strokeColor=#6c8ebf;align=center;verticalAlign=middle;fontFamily=Helvetica;fontSize=11;fontColor=default;endArrow=classic;fillColor=#dae8fc;exitX=0.5;exitY=1;exitDx=0;exitDy=0;" edge="1" parent="1" source="bOU06l6v6A-IQKMl1Zy2-2" target="bOU06l6v6A-IQKMl1Zy2-15">
          <mxGeometry relative="1" as="geometry" />
        </mxCell>
        <mxCell id="bOU06l6v6A-IQKMl1Zy2-19" style="edgeStyle=orthogonalEdgeStyle;shape=connector;curved=1;rounded=0;orthogonalLoop=1;jettySize=auto;html=1;entryX=0.5;entryY=0;entryDx=0;entryDy=0;dashed=1;labelBackgroundColor=default;strokeColor=#6c8ebf;align=center;verticalAlign=middle;fontFamily=Helvetica;fontSize=11;fontColor=default;endArrow=classic;fillColor=#dae8fc;" edge="1" parent="1" source="bOU06l6v6A-IQKMl1Zy2-2" target="bOU06l6v6A-IQKMl1Zy2-12">
          <mxGeometry relative="1" as="geometry" />
        </mxCell>
        <mxCell id="bOU06l6v6A-IQKMl1Zy2-20" style="edgeStyle=orthogonalEdgeStyle;shape=connector;curved=1;rounded=0;orthogonalLoop=1;jettySize=auto;html=1;entryX=0.5;entryY=0;entryDx=0;entryDy=0;dashed=1;labelBackgroundColor=default;strokeColor=#6c8ebf;align=center;verticalAlign=middle;fontFamily=Helvetica;fontSize=11;fontColor=default;endArrow=classic;fillColor=#dae8fc;exitX=0.5;exitY=1;exitDx=0;exitDy=0;" edge="1" parent="1" source="bOU06l6v6A-IQKMl1Zy2-2" target="bOU06l6v6A-IQKMl1Zy2-13">
          <mxGeometry relative="1" as="geometry" />
        </mxCell>
        <mxCell id="bOU06l6v6A-IQKMl1Zy2-21" style="edgeStyle=orthogonalEdgeStyle;shape=connector;curved=1;rounded=0;orthogonalLoop=1;jettySize=auto;html=1;dashed=1;labelBackgroundColor=default;strokeColor=#6c8ebf;align=center;verticalAlign=middle;fontFamily=Helvetica;fontSize=11;fontColor=default;endArrow=classic;fillColor=#dae8fc;exitX=0.5;exitY=1;exitDx=0;exitDy=0;" edge="1" parent="1" source="bOU06l6v6A-IQKMl1Zy2-2" target="bOU06l6v6A-IQKMl1Zy2-14">
          <mxGeometry relative="1" as="geometry" />
        </mxCell>
        <mxCell id="bOU06l6v6A-IQKMl1Zy2-2" value="any" style="rounded=1;whiteSpace=wrap;html=1;fillColor=#dae8fc;strokeColor=#6c8ebf;" vertex="1" parent="1">
          <mxGeometry x="350" y="100" width="120" height="30" as="geometry" />
        </mxCell>
        <mxCell id="bOU06l6v6A-IQKMl1Zy2-3" value="null" style="rounded=1;whiteSpace=wrap;html=1;fillColor=#dae8fc;strokeColor=#6c8ebf;" vertex="1" parent="1">
          <mxGeometry x="510" y="100" width="120" height="30" as="geometry" />
        </mxCell>
        <mxCell id="bOU06l6v6A-IQKMl1Zy2-9" style="edgeStyle=orthogonalEdgeStyle;shape=connector;curved=1;rounded=0;orthogonalLoop=1;jettySize=auto;html=1;entryX=1;entryY=0.5;entryDx=0;entryDy=0;dashed=1;labelBackgroundColor=default;strokeColor=#6c8ebf;align=center;verticalAlign=middle;fontFamily=Helvetica;fontSize=11;fontColor=default;endArrow=classic;fillColor=#dae8fc;" edge="1" parent="1" source="bOU06l6v6A-IQKMl1Zy2-6" target="bOU06l6v6A-IQKMl1Zy2-8">
          <mxGeometry relative="1" as="geometry" />
        </mxCell>
        <mxCell id="bOU06l6v6A-IQKMl1Zy2-6" value="void" style="rounded=1;whiteSpace=wrap;html=1;fillColor=#dae8fc;strokeColor=#6c8ebf;" vertex="1" parent="1">
          <mxGeometry x="190" y="100" width="120" height="30" as="geometry" />
        </mxCell>
        <mxCell id="bOU06l6v6A-IQKMl1Zy2-8" value="undefined" style="rounded=1;whiteSpace=wrap;html=1;fillColor=#dae8fc;strokeColor=#6c8ebf;" vertex="1" parent="1">
          <mxGeometry x="30" y="100" width="120" height="30" as="geometry" />
        </mxCell>
        <mxCell id="bOU06l6v6A-IQKMl1Zy2-39" style="edgeStyle=orthogonalEdgeStyle;shape=connector;curved=1;rounded=0;orthogonalLoop=1;jettySize=auto;html=1;entryX=0.5;entryY=0;entryDx=0;entryDy=0;dashed=1;labelBackgroundColor=default;strokeColor=#6c8ebf;align=center;verticalAlign=middle;fontFamily=Helvetica;fontSize=11;fontColor=default;endArrow=classic;fillColor=#dae8fc;" edge="1" parent="1" source="bOU06l6v6A-IQKMl1Zy2-10" target="bOU06l6v6A-IQKMl1Zy2-36">
          <mxGeometry relative="1" as="geometry" />
        </mxCell>
        <mxCell id="bOU06l6v6A-IQKMl1Zy2-10" value="boolean" style="rounded=1;whiteSpace=wrap;html=1;fillColor=#dae8fc;strokeColor=#6c8ebf;" vertex="1" parent="1">
          <mxGeometry x="319" y="180" width="80" height="30" as="geometry" />
        </mxCell>
        <mxCell id="bOU06l6v6A-IQKMl1Zy2-38" style="edgeStyle=orthogonalEdgeStyle;shape=connector;curved=1;rounded=0;orthogonalLoop=1;jettySize=auto;html=1;entryX=0.5;entryY=0;entryDx=0;entryDy=0;dashed=1;labelBackgroundColor=default;strokeColor=#6c8ebf;align=center;verticalAlign=middle;fontFamily=Helvetica;fontSize=11;fontColor=default;endArrow=classic;fillColor=#dae8fc;exitX=0.5;exitY=1;exitDx=0;exitDy=0;" edge="1" parent="1" source="bOU06l6v6A-IQKMl1Zy2-11" target="bOU06l6v6A-IQKMl1Zy2-36">
          <mxGeometry relative="1" as="geometry" />
        </mxCell>
        <mxCell id="bOU06l6v6A-IQKMl1Zy2-11" value="bigInt" style="rounded=1;whiteSpace=wrap;html=1;fillColor=#dae8fc;strokeColor=#6c8ebf;" vertex="1" parent="1">
          <mxGeometry x="209" y="180" width="80" height="30" as="geometry" />
        </mxCell>
        <mxCell id="bOU06l6v6A-IQKMl1Zy2-25" style="edgeStyle=orthogonalEdgeStyle;shape=connector;curved=1;rounded=0;orthogonalLoop=1;jettySize=auto;html=1;entryX=0.5;entryY=0;entryDx=0;entryDy=0;dashed=1;labelBackgroundColor=default;strokeColor=#6c8ebf;align=center;verticalAlign=middle;fontFamily=Helvetica;fontSize=11;fontColor=default;endArrow=classic;fillColor=#dae8fc;" edge="1" parent="1" source="bOU06l6v6A-IQKMl1Zy2-12" target="bOU06l6v6A-IQKMl1Zy2-24">
          <mxGeometry relative="1" as="geometry" />
        </mxCell>
        <mxCell id="bOU06l6v6A-IQKMl1Zy2-12" value="string" style="rounded=1;whiteSpace=wrap;html=1;fillColor=#dae8fc;strokeColor=#6c8ebf;" vertex="1" parent="1">
          <mxGeometry x="429" y="180" width="80" height="30" as="geometry" />
        </mxCell>
        <mxCell id="bOU06l6v6A-IQKMl1Zy2-27" style="edgeStyle=orthogonalEdgeStyle;shape=connector;curved=1;rounded=0;orthogonalLoop=1;jettySize=auto;html=1;entryX=0.5;entryY=0;entryDx=0;entryDy=0;dashed=1;labelBackgroundColor=default;strokeColor=#6c8ebf;align=center;verticalAlign=middle;fontFamily=Helvetica;fontSize=11;fontColor=default;endArrow=classic;fillColor=#dae8fc;" edge="1" parent="1" source="bOU06l6v6A-IQKMl1Zy2-13" target="bOU06l6v6A-IQKMl1Zy2-26">
          <mxGeometry relative="1" as="geometry" />
        </mxCell>
        <mxCell id="bOU06l6v6A-IQKMl1Zy2-13" value="symbol" style="rounded=1;whiteSpace=wrap;html=1;fillColor=#dae8fc;strokeColor=#6c8ebf;" vertex="1" parent="1">
          <mxGeometry x="539" y="180" width="80" height="30" as="geometry" />
        </mxCell>
        <mxCell id="bOU06l6v6A-IQKMl1Zy2-29" style="edgeStyle=orthogonalEdgeStyle;shape=connector;curved=1;rounded=0;orthogonalLoop=1;jettySize=auto;html=1;entryX=0.5;entryY=0;entryDx=0;entryDy=0;dashed=1;labelBackgroundColor=default;strokeColor=#6c8ebf;align=center;verticalAlign=middle;fontFamily=Helvetica;fontSize=11;fontColor=default;endArrow=classic;fillColor=#dae8fc;" edge="1" parent="1" source="bOU06l6v6A-IQKMl1Zy2-14" target="bOU06l6v6A-IQKMl1Zy2-28">
          <mxGeometry relative="1" as="geometry" />
        </mxCell>
        <mxCell id="bOU06l6v6A-IQKMl1Zy2-32" style="edgeStyle=orthogonalEdgeStyle;shape=connector;curved=1;rounded=0;orthogonalLoop=1;jettySize=auto;html=1;entryX=0.5;entryY=0;entryDx=0;entryDy=0;dashed=1;labelBackgroundColor=default;strokeColor=#6c8ebf;align=center;verticalAlign=middle;fontFamily=Helvetica;fontSize=11;fontColor=default;endArrow=classic;fillColor=#dae8fc;exitX=0.5;exitY=1;exitDx=0;exitDy=0;" edge="1" parent="1" source="bOU06l6v6A-IQKMl1Zy2-14" target="bOU06l6v6A-IQKMl1Zy2-30">
          <mxGeometry relative="1" as="geometry" />
        </mxCell>
        <mxCell id="bOU06l6v6A-IQKMl1Zy2-33" style="edgeStyle=orthogonalEdgeStyle;shape=connector;curved=1;rounded=0;orthogonalLoop=1;jettySize=auto;html=1;entryX=0.5;entryY=0;entryDx=0;entryDy=0;dashed=1;labelBackgroundColor=default;strokeColor=#6c8ebf;align=center;verticalAlign=middle;fontFamily=Helvetica;fontSize=11;fontColor=default;endArrow=classic;fillColor=#dae8fc;exitX=0.5;exitY=1;exitDx=0;exitDy=0;" edge="1" parent="1" source="bOU06l6v6A-IQKMl1Zy2-14" target="bOU06l6v6A-IQKMl1Zy2-31">
          <mxGeometry relative="1" as="geometry" />
        </mxCell>
        <mxCell id="bOU06l6v6A-IQKMl1Zy2-14" value="object" style="rounded=1;whiteSpace=wrap;html=1;fillColor=#dae8fc;strokeColor=#6c8ebf;" vertex="1" parent="1">
          <mxGeometry x="649" y="180" width="80" height="30" as="geometry" />
        </mxCell>
        <mxCell id="bOU06l6v6A-IQKMl1Zy2-23" style="edgeStyle=orthogonalEdgeStyle;shape=connector;curved=1;rounded=0;orthogonalLoop=1;jettySize=auto;html=1;entryX=0.5;entryY=0;entryDx=0;entryDy=0;dashed=1;labelBackgroundColor=default;strokeColor=#6c8ebf;align=center;verticalAlign=middle;fontFamily=Helvetica;fontSize=11;fontColor=default;endArrow=classic;fillColor=#dae8fc;" edge="1" parent="1" source="bOU06l6v6A-IQKMl1Zy2-15" target="bOU06l6v6A-IQKMl1Zy2-22">
          <mxGeometry relative="1" as="geometry" />
        </mxCell>
        <mxCell id="bOU06l6v6A-IQKMl1Zy2-15" value="number" style="rounded=1;whiteSpace=wrap;html=1;fillColor=#dae8fc;strokeColor=#6c8ebf;" vertex="1" parent="1">
          <mxGeometry x="99" y="180" width="80" height="30" as="geometry" />
        </mxCell>
        <mxCell id="bOU06l6v6A-IQKMl1Zy2-37" style="edgeStyle=orthogonalEdgeStyle;shape=connector;curved=1;rounded=0;orthogonalLoop=1;jettySize=auto;html=1;entryX=0.5;entryY=0;entryDx=0;entryDy=0;dashed=1;labelBackgroundColor=default;strokeColor=#6c8ebf;align=center;verticalAlign=middle;fontFamily=Helvetica;fontSize=11;fontColor=default;endArrow=classic;fillColor=#dae8fc;exitX=0.5;exitY=1;exitDx=0;exitDy=0;" edge="1" parent="1" source="bOU06l6v6A-IQKMl1Zy2-22" target="bOU06l6v6A-IQKMl1Zy2-36">
          <mxGeometry relative="1" as="geometry" />
        </mxCell>
        <mxCell id="bOU06l6v6A-IQKMl1Zy2-22" value="number&lt;br&gt;enum" style="rounded=1;whiteSpace=wrap;html=1;fillColor=#dae8fc;strokeColor=#6c8ebf;" vertex="1" parent="1">
          <mxGeometry x="99" y="250" width="80" height="30" as="geometry" />
        </mxCell>
        <mxCell id="bOU06l6v6A-IQKMl1Zy2-40" style="edgeStyle=orthogonalEdgeStyle;shape=connector;curved=1;rounded=0;orthogonalLoop=1;jettySize=auto;html=1;entryX=0.5;entryY=0;entryDx=0;entryDy=0;dashed=1;labelBackgroundColor=default;strokeColor=#6c8ebf;align=center;verticalAlign=middle;fontFamily=Helvetica;fontSize=11;fontColor=default;endArrow=classic;fillColor=#dae8fc;" edge="1" parent="1" source="bOU06l6v6A-IQKMl1Zy2-24" target="bOU06l6v6A-IQKMl1Zy2-36">
          <mxGeometry relative="1" as="geometry" />
        </mxCell>
        <mxCell id="bOU06l6v6A-IQKMl1Zy2-24" value="string&lt;br&gt;enum" style="rounded=1;whiteSpace=wrap;html=1;fillColor=#dae8fc;strokeColor=#6c8ebf;" vertex="1" parent="1">
          <mxGeometry x="429" y="250" width="80" height="30" as="geometry" />
        </mxCell>
        <mxCell id="bOU06l6v6A-IQKMl1Zy2-41" style="edgeStyle=orthogonalEdgeStyle;shape=connector;curved=1;rounded=0;orthogonalLoop=1;jettySize=auto;html=1;entryX=0.5;entryY=0;entryDx=0;entryDy=0;dashed=1;labelBackgroundColor=default;strokeColor=#6c8ebf;align=center;verticalAlign=middle;fontFamily=Helvetica;fontSize=11;fontColor=default;endArrow=classic;fillColor=#dae8fc;exitX=0.5;exitY=1;exitDx=0;exitDy=0;" edge="1" parent="1" source="bOU06l6v6A-IQKMl1Zy2-26" target="bOU06l6v6A-IQKMl1Zy2-36">
          <mxGeometry relative="1" as="geometry" />
        </mxCell>
        <mxCell id="bOU06l6v6A-IQKMl1Zy2-26" value="unique&lt;br&gt;enum" style="rounded=1;whiteSpace=wrap;html=1;fillColor=#dae8fc;strokeColor=#6c8ebf;" vertex="1" parent="1">
          <mxGeometry x="539" y="250" width="80" height="30" as="geometry" />
        </mxCell>
        <mxCell id="bOU06l6v6A-IQKMl1Zy2-35" style="edgeStyle=orthogonalEdgeStyle;shape=connector;curved=1;rounded=0;orthogonalLoop=1;jettySize=auto;html=1;entryX=0.5;entryY=0;entryDx=0;entryDy=0;dashed=1;labelBackgroundColor=default;strokeColor=#6c8ebf;align=center;verticalAlign=middle;fontFamily=Helvetica;fontSize=11;fontColor=default;endArrow=classic;fillColor=#dae8fc;" edge="1" parent="1" source="bOU06l6v6A-IQKMl1Zy2-28" target="bOU06l6v6A-IQKMl1Zy2-34">
          <mxGeometry relative="1" as="geometry" />
        </mxCell>
        <mxCell id="bOU06l6v6A-IQKMl1Zy2-28" value="Array" style="rounded=1;whiteSpace=wrap;html=1;fillColor=#dae8fc;strokeColor=#6c8ebf;" vertex="1" parent="1">
          <mxGeometry x="649" y="250" width="80" height="30" as="geometry" />
        </mxCell>
        <mxCell id="bOU06l6v6A-IQKMl1Zy2-43" style="edgeStyle=orthogonalEdgeStyle;shape=connector;curved=1;rounded=0;orthogonalLoop=1;jettySize=auto;html=1;entryX=0.5;entryY=0;entryDx=0;entryDy=0;dashed=1;labelBackgroundColor=default;strokeColor=#6c8ebf;align=center;verticalAlign=middle;fontFamily=Helvetica;fontSize=11;fontColor=default;endArrow=classic;fillColor=#dae8fc;exitX=0.5;exitY=1;exitDx=0;exitDy=0;" edge="1" parent="1" source="bOU06l6v6A-IQKMl1Zy2-30" target="bOU06l6v6A-IQKMl1Zy2-36">
          <mxGeometry relative="1" as="geometry">
            <Array as="points">
              <mxPoint x="787" y="360" />
              <mxPoint x="410" y="360" />
            </Array>
          </mxGeometry>
        </mxCell>
        <mxCell id="bOU06l6v6A-IQKMl1Zy2-30" value="Function" style="rounded=1;whiteSpace=wrap;html=1;fillColor=#dae8fc;strokeColor=#6c8ebf;" vertex="1" parent="1">
          <mxGeometry x="747" y="250" width="80" height="30" as="geometry" />
        </mxCell>
        <mxCell id="bOU06l6v6A-IQKMl1Zy2-44" style="edgeStyle=orthogonalEdgeStyle;shape=connector;curved=1;rounded=0;orthogonalLoop=1;jettySize=auto;html=1;entryX=0.5;entryY=0;entryDx=0;entryDy=0;dashed=1;labelBackgroundColor=default;strokeColor=#6c8ebf;align=center;verticalAlign=middle;fontFamily=Helvetica;fontSize=11;fontColor=default;endArrow=classic;fillColor=#dae8fc;" edge="1" parent="1" source="bOU06l6v6A-IQKMl1Zy2-31" target="bOU06l6v6A-IQKMl1Zy2-36">
          <mxGeometry relative="1" as="geometry">
            <Array as="points">
              <mxPoint x="880" y="360" />
              <mxPoint x="410" y="360" />
            </Array>
          </mxGeometry>
        </mxCell>
        <mxCell id="bOU06l6v6A-IQKMl1Zy2-31" value="Constructor" style="rounded=1;whiteSpace=wrap;html=1;fillColor=#dae8fc;strokeColor=#6c8ebf;" vertex="1" parent="1">
          <mxGeometry x="840" y="250" width="80" height="30" as="geometry" />
        </mxCell>
        <mxCell id="bOU06l6v6A-IQKMl1Zy2-42" style="edgeStyle=orthogonalEdgeStyle;shape=connector;curved=1;rounded=0;orthogonalLoop=1;jettySize=auto;html=1;entryX=0.5;entryY=0;entryDx=0;entryDy=0;dashed=1;labelBackgroundColor=default;strokeColor=#6c8ebf;align=center;verticalAlign=middle;fontFamily=Helvetica;fontSize=11;fontColor=default;endArrow=classic;fillColor=#dae8fc;exitX=0.5;exitY=1;exitDx=0;exitDy=0;" edge="1" parent="1" source="bOU06l6v6A-IQKMl1Zy2-34" target="bOU06l6v6A-IQKMl1Zy2-36">
          <mxGeometry relative="1" as="geometry" />
        </mxCell>
        <mxCell id="bOU06l6v6A-IQKMl1Zy2-34" value="Tuple" style="rounded=1;whiteSpace=wrap;html=1;fillColor=#dae8fc;strokeColor=#6c8ebf;" vertex="1" parent="1">
          <mxGeometry x="649" y="310" width="80" height="30" as="geometry" />
        </mxCell>
        <mxCell id="bOU06l6v6A-IQKMl1Zy2-36" value="never" style="rounded=1;whiteSpace=wrap;html=1;fillColor=#dae8fc;strokeColor=#6c8ebf;" vertex="1" parent="1">
          <mxGeometry x="370" y="370" width="80" height="30" as="geometry" />
        </mxCell>
      </root>
    </mxGraphModel>
  </diagram>
</mxfile>
